<?xml version="1.0" encoding="utf-8"?>
<!-- Generator: Adobe Illustrator 25.4.1, SVG Export Plug-In . SVG Version: 6.00 Build 0)  -->
<svg version="1.1" id="Layer_1" xmlns="http://www.w3.org/2000/svg" xmlns:xlink="http://www.w3.org/1999/xlink" x="0px" y="0px"
	 viewBox="0 0 512 512" style="enable-background:new 0 0 512 512;" xml:space="preserve">
<style type="text/css">
	.st0{fill-rule:evenodd;clip-rule:evenodd;}
</style>
<path d="M256,0C114.6,0,0,114.6,0,256s114.6,256,256,256s256-114.6,256-256S397.4,0,256,0z M416,252.8c0,0,0,66.2-7.1,98.1
	c-4,17.5-15.6,31.3-30.4,36c-27,8.4-135,8.4-135,8.4s-107.7,0-135-8.7c-14.8-4.7-26.4-18.5-30.4-36c-7.1-31.6-7.1-98.1-7.1-98.1
	s0-66.2,7.1-98.1c4-17.5,15.9-31.6,30.4-36.3c27-8.4,135-8.4,135-8.4s108,0,135,8.7c14.8,4.7,26.4,18.5,30.4,36
	C416.2,186.3,416,252.8,416,252.8z"/>
<path class="st0" d="M256,509.8C115.2,509.8,1.1,395.6,1.1,254.9S115.2,0,256,0s254.9,114.1,254.9,254.9S396.8,509.8,256,509.8z
	 M151.1,367.4h42.5V146.5h-42.5V367.4z M304.2,146.5c-46.9,0-85.1,38.2-85.1,85.1c0,46.8,38.2,84.8,85.1,84.8
	c46.8,0,84.8-38.1,84.8-84.8C389,184.6,350.9,146.5,304.2,146.5z"/>
</svg>
